HIERARCHY
ROOT Hips
{
	OFFSET 0.000000 0.000000 0.000000
	CHANNELS 6 Xposition Yposition Zposition Xrotation Yrotation Zrotation
	JOINT LeftUpLeg_virtual
	{
		OFFSET 0.000000 0.000000 0.000000
		CHANNELS 3 Xrotation Yrotation Zrotation
		JOINT LeftUpLeg
		{
			OFFSET 15.427100 -6.655098 0.678600
			CHANNELS 3 Xrotation Yrotation Zrotation
			JOINT LeftLeg
			{
				OFFSET 4.081073 -39.591068 13.024000
				CHANNELS 3 Xrotation Yrotation Zrotation
				JOINT LeftFoot
				{
					OFFSET -4.081074 -37.707932 -15.979700
					CHANNELS 3 Xrotation Yrotation Zrotation
					JOINT LeftToeBase
					{
						OFFSET 5.346399 -15.068900 20.645000
						CHANNELS 3 Xrotation Yrotation Zrotation
						JOINT LeftToe_End
						{
							OFFSET 2.754700 0.931300 11.300900
							CHANNELS 3 Xrotation Yrotation Zrotation
							End Site
							{
								OFFSET 0 0 0
							}
						}
					}
				}
			}
		}
	}
	JOINT RightUpLeg_virtual
	{
		OFFSET 0.000000 0.000000 0.000000
		CHANNELS 3 Xrotation Yrotation Zrotation
		JOINT RightUpLeg
		{
			OFFSET -15.569500 -6.655098 0.678600
			CHANNELS 3 Xrotation Yrotation Zrotation
			JOINT RightLeg
			{
				OFFSET -4.081825 -39.591045 13.023800
				CHANNELS 3 Xrotation Yrotation Zrotation
				JOINT RightFoot
				{
					OFFSET 4.081824 -37.707954 -15.979600
					CHANNELS 3 Xrotation Yrotation Zrotation
					JOINT RightToeBase
					{
						OFFSET -5.346400 -15.068900 20.645000
						CHANNELS 3 Xrotation Yrotation Zrotation
						JOINT RightToe_End
						{
							OFFSET -2.754700 0.931300 11.300900
							CHANNELS 3 Xrotation Yrotation Zrotation
							End Site
							{
								OFFSET 0 0 0
							}
						}
					}
				}
			}
		}
	}
	JOINT Spine_virtual
	{
		OFFSET 0.000000 0.000000 0.000000
		CHANNELS 3 Xrotation Yrotation Zrotation
		JOINT Spine
		{
			OFFSET -0.279200 12.230698 -2.892100
			CHANNELS 3 Xrotation Yrotation Zrotation
			JOINT Spine1
			{
				OFFSET -0.232667 10.192268 -1.242267
				CHANNELS 3 Xrotation Yrotation Zrotation
				JOINT Spine1_split
				{
					OFFSET -0.232667 10.192268 -1.242267
					CHANNELS 3 Xrotation Yrotation Zrotation
					JOINT Spine2
					{
						OFFSET -0.232667 10.192268 -1.242267
						CHANNELS 3 Xrotation Yrotation Zrotation
						JOINT Neck_virtual
						{
							OFFSET 0.000000 0.000000 0.000000
							CHANNELS 3 Xrotation Yrotation Zrotation
							JOINT Neck
							{
								OFFSET -0.418800 17.814194 8.416900
								CHANNELS 3 Xrotation Yrotation Zrotation
								JOINT Head
								{
									OFFSET 0.000000 7.031097 3.806800
									CHANNELS 3 Xrotation Yrotation Zrotation
									JOINT HeadTop_End
									{
										OFFSET 0.000000 24.646606 12.978600
										CHANNELS 3 Xrotation Yrotation Zrotation
										End Site
										{
											OFFSET 0 0 0
										}
									}
								}
							}
						}
						JOINT LeftShoulder_virtual
						{
							OFFSET 0.000000 0.000000 0.000000
							CHANNELS 3 Xrotation Yrotation Zrotation
							JOINT LeftShoulder
							{
								OFFSET 8.476499 7.247704 -3.868750
								CHANNELS 3 Xrotation Yrotation Zrotation
								JOINT LeftShoulder_split
								{
									OFFSET 8.476499 7.247704 -3.868750
									CHANNELS 3 Xrotation Yrotation Zrotation
									JOINT LeftArm
									{
										OFFSET 9.308998 -2.777710 0.208600
										CHANNELS 3 Xrotation Yrotation Zrotation
										JOINT LeftForeArm
										{
											OFFSET 29.972298 0.000000 0.000000
											CHANNELS 3 Xrotation Yrotation Zrotation
											JOINT LeftHand
											{
												OFFSET 26.026505 0.000000 0.000000
												CHANNELS 3 Xrotation Yrotation Zrotation
												End Site
												{
													OFFSET 0 0 0
												}
											}
										}
									}
								}
							}
						}
						JOINT RightShoulder_virtual
						{
							OFFSET 0.000000 0.000000 0.000000
							CHANNELS 3 Xrotation Yrotation Zrotation
							JOINT RightShoulder
							{
								OFFSET -7.570500 7.247704 -3.868750
								CHANNELS 3 Xrotation Yrotation Zrotation
								JOINT RightShoulder_split
								{
									OFFSET -7.570500 7.247704 -3.868750
									CHANNELS 3 Xrotation Yrotation Zrotation
									JOINT RightArm
									{
										OFFSET -9.308998 -2.777710 0.208500
										CHANNELS 3 Xrotation Yrotation Zrotation
										JOINT RightForeArm
										{
											OFFSET -29.972300 0.000000 0.000000
											CHANNELS 3 Xrotation Yrotation Zrotation
											JOINT RightHand
											{
												OFFSET -26.026505 0.000000 0.000000
												CHANNELS 3 Xrotation Yrotation Zrotation
												End Site
												{
													OFFSET 0 0 0
												}
											}
										}
									}
								}
							}
						}
					}
				}
			}
		}
	}
}
MOTION
Frames: 11
Frame Time: 0.03333333
10.503874 36.974625 -5.354633 0.000000 0.000000 0.000000 1.558386 -29.261456 9.925791 -83.392102 -15.293666 52.092647 65.424982 13.001636 -5.164640 41.093973 -4.876036 -8.106444 -0.000647 0.000011 0.000001 0.000000 0.000000 0.000000 1.558386 -29.261456 9.925791 1.990806 -0.505789 -24.172787 97.970854 16.333233 1.743288 13.510335 2.003888 19.871785 53.497416 -3.178691 -7.121192 0.000000 0.000000 0.000000 1.558386 -29.261456 9.925791 2.920662 3.758322 -6.417518 2.227982 -1.286562 -3.027762 0.000000 0.000000 0.000000 0.000000 0.000000 0.000000 2.233816 -1.285666 -3.025124 -3.962408 3.288531 2.946569 -0.115028 19.920371 2.691781 0.000000 0.000000 0.000000 2.233816 -1.285666 -3.025124 0.452718 1.693816 1.739610 0.000000 0.000000 0.000000 -1.798693 -11.700863 -58.798660 0.000106 -83.306752 0.000118 0.000000 0.000000 0.000000 2.233816 -1.285666 -3.025124 5.136814 17.382611 7.477154 0.000000 0.000000 0.000000 14.034099 22.826740 31.042264 -179.999991 58.256056 179.999978 0.000000 0.000000 0.000000 
10.487870 36.999817 -5.342590 0.000000 0.000000 0.000000 1.621416 -29.199486 9.951545 -83.364679 -15.368450 52.058445 65.426109 13.037293 -5.269853 41.101521 -4.853791 -8.044434 -0.000633 -0.000013 0.000007 0.000000 0.000000 0.000000 1.621416 -29.199486 9.951545 1.977951 -0.394708 -24.233195 98.082227 16.255191 1.885874 13.253459 1.937675 19.772663 53.435490 -3.256303 -7.253418 0.000000 0.000000 0.000000 1.621416 -29.199486 9.951545 2.919162 3.743936 -6.442038 2.223864 -1.290196 -3.038300 0.000000 0.000000 0.000000 0.000000 0.000000 0.000000 2.230377 -1.288411 -3.035255 -3.886563 3.294394 2.964090 -0.011394 19.978530 2.670442 0.000000 0.000000 0.000000 2.230377 -1.288411 -3.035255 0.506467 1.585649 1.768911 0.000000 0.000000 0.000000 -1.905212 -11.648049 -58.840604 0.000438 -83.445937 0.000442 0.000000 0.000000 0.000000 2.230377 -1.288411 -3.035255 5.163595 17.463971 7.466049 0.000000 0.000000 0.000000 14.080612 22.520696 31.066829 -179.999991 58.113367 179.999978 0.000000 0.000000 0.000000 
10.469707 37.026085 -5.346279 0.000000 0.000000 0.000000 1.669090 -29.163187 9.980393 -83.282703 -15.435556 52.042842 65.411342 13.085299 -5.370091 41.110629 -4.849170 -8.035948 -0.000654 -0.000010 0.000003 0.000000 0.000000 0.000000 1.669090 -29.163187 9.980393 1.973670 -0.324334 -24.274865 98.166771 16.153152 1.978091 13.066936 1.901169 19.728767 53.335619 -3.304547 -7.382392 0.000000 0.000000 0.000000 1.669090 -29.163187 9.980393 2.932688 3.722931 -6.467896 2.230088 -1.293046 -3.049933 0.000000 0.000000 0.000000 0.000000 0.000000 0.000000 2.235819 -1.290963 -3.046374 -3.822535 3.316909 2.955110 -0.029434 20.063553 2.665989 0.000000 0.000000 0.000000 2.235819 -1.290963 -3.046374 0.530836 1.548087 1.698934 0.000000 0.000000 0.000000 -2.011588 -11.548416 -58.783381 0.000127 -83.644115 0.000128 0.000000 0.000000 0.000000 2.235819 -1.290963 -3.046374 5.178688 17.514111 7.436935 0.000000 0.000000 0.000000 14.117867 22.346446 31.052144 179.999991 58.006905 -180.000005 0.000000 0.000000 0.000000 
10.445086 37.052208 -5.364906 0.000000 0.000000 0.000000 1.708247 -29.157548 10.024786 -83.145621 -15.479276 52.056895 65.375381 13.139064 -5.464555 41.118634 -4.867595 -8.094222 -0.000640 -0.000008 0.000003 0.000000 0.000000 0.000000 1.708247 -29.157548 10.024786 1.954108 -0.280556 -24.295446 98.223502 16.058400 2.024074 12.962220 1.888605 19.717084 53.268485 -3.319279 -7.465174 0.000000 0.000000 0.000000 1.708247 -29.157548 10.024786 2.949536 3.695144 -6.498763 2.242118 -1.294390 -3.067451 0.000000 0.000000 0.000000 0.000000 0.000000 0.000000 2.247330 -1.293196 -3.063673 -3.763392 3.344346 2.940333 -0.125245 20.158062 2.697602 0.000000 0.000000 0.000000 2.247330 -1.293196 -3.063673 0.533401 1.559038 1.582765 0.000000 0.000000 0.000000 -2.109724 -11.376565 -58.705831 -0.000240 -83.880160 -0.000216 0.000000 0.000000 0.000000 2.247330 -1.293196 -3.063673 5.188727 17.547031 7.437169 0.000000 0.000000 0.000000 14.085630 22.272098 30.964311 -179.999978 58.006925 179.999978 0.000000 0.000000 0.000000 
10.413615 37.075089 -5.390408 0.000000 0.000000 0.000000 1.737461 -29.161503 10.073091 -82.980487 -15.507311 52.093204 65.326504 13.186839 -5.563088 41.126509 -4.898374 -8.191270 -0.000649 0.000007 -0.000002 0.000000 0.000000 0.000000 1.737461 -29.161503 10.073091 1.918790 -0.259030 -24.283669 98.253767 16.002536 2.040760 12.912217 1.885021 19.711555 53.299989 -3.310904 -7.471781 0.000000 0.000000 0.000000 1.737461 -29.161503 10.073091 2.963526 3.672591 -6.532945 2.254016 -1.294917 -3.087605 0.000000 0.000000 0.000000 0.000000 0.000000 0.000000 2.258682 -1.295233 -3.083953 -3.715551 3.362794 2.953030 -0.217475 20.257257 2.713153 0.000000 0.000000 0.000000 2.258682 -1.295233 -3.083953 0.533447 1.569944 1.508527 0.000000 0.000000 0.000000 -2.186856 -11.180684 -58.684418 -0.000004 -84.079239 -0.000008 0.000000 0.000000 0.000000 2.258682 -1.295233 -3.083953 5.196403 17.586093 7.510235 0.000000 0.000000 0.000000 14.008887 22.211277 30.786866 -179.999978 58.074319 179.999991 0.000000 0.000000 0.000000 
10.379533 37.092567 -5.413795 0.000000 0.000000 0.000000 1.746111 -29.158747 10.110572 -82.810989 -15.530431 52.134294 65.277580 13.221208 -5.665698 41.136098 -4.925693 -8.285263 -0.000634 0.000002 0.000000 0.000000 0.000000 0.000000 1.746111 -29.158747 10.110572 1.889132 -0.264216 -24.241193 98.265535 15.990859 2.039284 12.873722 1.877210 19.691978 53.444260 -3.290585 -7.407128 0.000000 0.000000 0.000000 1.746111 -29.158747 10.110572 2.978075 3.660128 -6.560231 2.266127 -1.295398 -3.102835 0.000000 0.000000 0.000000 0.000000 0.000000 0.000000 2.270280 -1.297257 -3.099465 -3.688603 3.373972 2.977123 -0.271899 20.352212 2.673155 0.000000 0.000000 0.000000 2.270280 -1.297257 -3.099465 0.539273 1.564966 1.464616 0.000000 0.000000 0.000000 -2.237656 -11.038667 -58.684569 -0.000279 -84.201438 -0.000316 0.000000 0.000000 0.000000 2.270280 -1.297257 -3.099465 5.204295 17.625115 7.617473 0.000000 0.000000 0.000000 13.938721 22.162063 30.589327 -179.999964 58.142211 179.999964 0.000000 0.000000 0.000000 
10.346414 37.105728 -5.430435 0.000000 0.000000 0.000000 1.728382 -29.152234 10.132356 -82.651573 -15.549428 52.162595 65.234761 13.241585 -5.751304 41.146890 -4.942780 -8.358675 -0.000651 -0.000005 0.000007 0.000000 0.000000 0.000000 1.728382 -29.152234 10.132356 1.882598 -0.293519 -24.183226 98.265194 16.003015 2.025897 12.832542 1.866010 19.658500 53.650531 -3.264691 -7.304946 0.000000 0.000000 0.000000 1.728382 -29.152234 10.132356 2.993442 3.649606 -6.569759 2.278764 -1.295599 -3.107693 0.000000 0.000000 0.000000 0.000000 0.000000 0.000000 2.282346 -1.299420 -3.104586 -3.675493 3.392494 2.965437 -0.303793 20.435434 2.592434 0.000000 0.000000 0.000000 2.282346 -1.299420 -3.104586 0.548929 1.554975 1.384094 0.000000 0.000000 0.000000 -2.264947 -10.926564 -58.659099 0.000013 -84.269986 0.000031 0.000000 0.000000 0.000000 2.282346 -1.299420 -3.104586 5.207635 17.644294 7.669138 0.000000 0.000000 0.000000 13.890756 22.190357 30.488499 179.999978 58.210226 -179.999978 0.000000 0.000000 0.000000 
10.314287 37.118156 -5.440052 0.000000 0.000000 0.000000 1.697021 -29.145295 10.141490 -82.511943 -15.566599 52.173646 65.199456 13.252890 -5.803519 41.155756 -4.951935 -8.420936 -0.000647 0.000009 0.000001 0.000000 0.000000 0.000000 1.697021 -29.145295 10.141490 1.897985 -0.328887 -24.122683 98.253268 16.010086 2.010933 12.800702 1.857525 19.623805 53.839092 -3.237578 -7.208985 0.000000 0.000000 0.000000 1.697021 -29.145295 10.141490 3.001002 3.630663 -6.557070 2.286135 -1.296044 -3.100968 0.000000 0.000000 0.000000 0.000000 0.000000 0.000000 2.289221 -1.301904 -3.097964 -3.664897 3.425362 2.904878 -0.336605 20.514738 2.492550 0.000000 0.000000 0.000000 2.289221 -1.301904 -3.097964 0.561429 1.549784 1.242269 0.000000 0.000000 0.000000 -2.262489 -10.752990 -58.623992 0.000194 -84.326117 0.000191 0.000000 0.000000 0.000000 2.289221 -1.301904 -3.097964 5.205934 17.642794 7.616641 0.000000 0.000000 0.000000 13.856641 22.325739 30.529747 -179.999978 58.310541 179.999991 0.000000 0.000000 0.000000 
10.282768 37.132675 -5.442356 0.000000 0.000000 0.000000 1.678644 -29.137614 10.145417 -82.397394 -15.594427 52.176314 65.173706 13.262083 -5.830420 41.159721 -4.960346 -8.488127 -0.000656 0.000004 -0.000003 0.000000 0.000000 0.000000 1.678644 -29.137614 10.145417 1.914145 -0.350008 -24.060053 98.229233 15.995026 2.004180 12.794132 1.855176 19.601427 53.958334 -3.215082 -7.144628 0.000000 0.000000 0.000000 1.678644 -29.137614 10.145417 2.992873 3.605266 -6.524291 2.280862 -1.299362 -3.080199 0.000000 0.000000 0.000000 0.000000 0.000000 0.000000 2.283488 -1.304787 -3.077063 -3.656383 3.466741 2.816281 -0.387517 20.593345 2.384494 0.000000 0.000000 0.000000 2.283488 -1.304787 -3.077063 0.571679 1.557493 1.036759 0.000000 0.000000 0.000000 -2.220099 -10.522781 -58.575894 0.000511 -84.393913 0.000573 0.000000 0.000000 0.000000 2.283488 -1.304787 -3.077063 5.203710 17.639399 7.490145 0.000000 0.000000 0.000000 13.839761 22.503902 30.660374 -179.999978 58.435581 179.999991 0.000000 0.000000 0.000000 
10.255231 37.150337 -5.433834 0.000000 0.000000 0.000000 1.688279 -29.131863 10.152029 -82.307318 -15.641429 52.179073 65.163078 13.272574 -5.852474 41.156343 -4.967790 -8.553595 -0.000638 -0.000003 -0.000001 0.000000 0.000000 0.000000 1.688279 -29.131863 10.152029 1.919050 -0.340071 -23.998829 98.195622 15.959608 2.010878 12.807120 1.860140 19.594512 54.012149 -3.200599 -7.112200 0.000000 0.000000 0.000000 1.688279 -29.131863 10.152029 2.967269 3.588931 -6.483539 2.259535 -1.303631 -3.051070 0.000000 0.000000 0.000000 0.000000 0.000000 0.000000 2.261623 -1.308130 -3.047703 -3.658015 3.503213 2.730576 -0.460879 20.649417 2.307027 0.000000 0.000000 0.000000 2.261623 -1.308130 -3.047703 0.572003 1.579515 0.820363 0.000000 0.000000 0.000000 -2.146409 -10.317148 -58.527775 0.000869 -84.472528 0.000869 0.000000 0.000000 0.000000 2.261623 -1.308130 -3.047703 5.204568 17.652745 7.382670 0.000000 0.000000 0.000000 13.844219 22.606951 30.772126 179.999991 58.544741 -179.999991 0.000000 0.000000 0.000000 
10.232060 37.170029 -5.416870 0.000000 0.000000 0.000000 1.709195 -29.123845 10.154704 -82.230717 -15.703355 52.185606 65.167081 13.277384 -5.881922 41.145708 -4.970365 -8.606562 -0.000655 0.000001 -0.000005 0.000000 0.000000 0.000000 1.709195 -29.123845 10.154704 1.928098 -0.303439 -23.945146 98.157174 15.905818 2.032284 12.828453 1.867785 19.589597 54.006275 -3.195246 -7.112324 0.000000 0.000000 0.000000 1.709195 -29.123845 10.154704 2.938588 3.586990 -6.453576 2.233505 -1.294944 -3.025709 0.000000 0.000000 0.000000 0.000000 0.000000 0.000000 2.235046 -1.300357 -3.022210 -3.681338 3.519025 2.674853 -0.535000 20.640569 2.313458 0.000000 0.000000 0.000000 2.235046 -1.300357 -3.022210 0.569457 1.598587 0.702712 0.000000 0.000000 0.000000 -2.081165 -10.152876 -58.554337 -0.000740 -84.541452 -0.000726 0.000000 0.000000 0.000000 2.235046 -1.300357 -3.022210 5.211800 17.694351 7.369120 0.000000 0.000000 0.000000 13.850515 22.580551 30.797060 -179.999991 58.612729 179.999978 0.000000 0.000000 0.000000 
